HIERARCHY
ROOT ROOT
{
	OFFSET 0.000000 56.020000 -5.659234
	CHANNELS 6 Xposition Yposition Zposition Xrotation Yrotation Zrotation 
	JOINT C_spine0001_bind_JNT
	{
		OFFSET 0.000000 1.618999 0.000000
		CHANNELS 3 Xrotation Yrotation Zrotation
		JOINT C_spine0002_bind_JNT
		{
			OFFSET 0.000000 4.942001 0.000001
			CHANNELS 3 Xrotation Yrotation Zrotation
			JOINT C_spine0003_bind_JNT
			{
				OFFSET 0.000000 4.942001 -0.000000
				CHANNELS 3 Xrotation Yrotation Zrotation
				JOINT C_neck0001_bind_JNT
				{
					OFFSET 0.000000 17.026009 -0.000000
					CHANNELS 3 Xrotation Yrotation Zrotation
					JOINT C_neck0002_bind_JNT
					{
						OFFSET 0.000000 3.249985 0.000000
						CHANNELS 3 Xrotation Yrotation Zrotation
						JOINT C_head_bind_JNT
						{
							OFFSET 0.000000 5.278008 0.000000
							CHANNELS 3 Xrotation Yrotation Zrotation
							End Site
							{
								OFFSET 0.000000 0.000000 0.000000
							}
						}
					}
				}
				JOINT L_clavicle_bind_JNT
				{
					OFFSET 4.590000 12.067001 0.834000
					CHANNELS 3 Xrotation Yrotation Zrotation
					JOINT L_armUpper0001_bind_JNT
					{
						OFFSET 7.812635 0.512001 -3.452945
						CHANNELS 3 Xrotation Yrotation Zrotation
						JOINT L_armLower0001_bind_JNT
						{
							OFFSET 15.265892 -6.552116 -0.058157
							CHANNELS 3 Xrotation Yrotation Zrotation
							JOINT L_hand0001_bind_JNT
							{
								OFFSET 14.747667 -6.369995 5.049225
								CHANNELS 3 Xrotation Yrotation Zrotation
								End Site
								{
									OFFSET 0.000000 0.000000 0.000000
								}
							}
						}
					}
				}
				JOINT R_clavicle_bind_JNT
				{
					OFFSET -4.590000 12.067001 0.834000
					CHANNELS 3 Xrotation Yrotation Zrotation
					JOINT R_armUpper0001_bind_JNT
					{
						OFFSET -7.812635 0.512001 -3.452945
						CHANNELS 3 Xrotation Yrotation Zrotation
						JOINT R_armLower0001_bind_JNT
						{
							OFFSET -15.265890 -6.552124 -0.058160
							CHANNELS 3 Xrotation Yrotation Zrotation
							JOINT R_hand0001_bind_JNT
							{
								OFFSET -14.746784 -6.369629 5.048937
								CHANNELS 3 Xrotation Yrotation Zrotation
								End Site
								{
									OFFSET 0.000000 0.000000 0.000000
								}
							}
						}
					}
				}
			}
		}
	}
	JOINT C_pelvis0001_bind_JNT
	{
		OFFSET -0.000000 0.000000 0.000000
		CHANNELS 3 Xrotation Yrotation Zrotation
		JOINT L_legUpper0001_bind_JNT
		{
			OFFSET 6.599999 -6.027000 0.539000
			CHANNELS 3 Xrotation Yrotation Zrotation
			JOINT L_legLower0001_bind_JNT
			{
				OFFSET -0.140713 -19.187443 0.040261
				CHANNELS 3 Xrotation Yrotation Zrotation
				JOINT L_foot0001_bind_JNT
				{
					OFFSET -0.132215 -18.028637 -1.138370
					CHANNELS 3 Xrotation Yrotation Zrotation
					JOINT L_foot0002_bind_JNT
					{
						OFFSET 0.007014 -4.693133 9.886524
						CHANNELS 3 Xrotation Yrotation Zrotation
						End Site
						{
							OFFSET 0.000000 0.000000 0.000000
						}
					}
				}
			}
		}
		JOINT R_legUpper0001_bind_JNT
		{
			OFFSET -6.599999 -6.027000 0.539000
			CHANNELS 3 Xrotation Yrotation Zrotation
			JOINT R_legLower0001_bind_JNT
			{
				OFFSET 0.140710 -19.187164 0.040550
				CHANNELS 3 Xrotation Yrotation Zrotation
				JOINT R_foot0001_bind_JNT
				{
					OFFSET 0.132215 -18.028633 -1.138362
					CHANNELS 3 Xrotation Yrotation Zrotation
					JOINT R_foot0002_bind_JNT
					{
						OFFSET -0.007014 -4.693128 9.886505
						CHANNELS 3 Xrotation Yrotation Zrotation
						End Site
						{
							OFFSET 0.000000 0.000000 0.000000
						}
					}
				}
			}
		}
	}
}
MOTION
Frames: 8
Frame Time: 0.033333
-9.014254 46.364567 39.176842 0.017104 -17.842243 -0.006451 -1.576245 1.257868 -1.332274 14.696731 0.053794 -4.211308 7.165543 0.446252 -2.506161 1.790415 -1.193817 -3.793100 1.504674 -3.692198 1.421931 28.438057 6.367759 6.130191 -7.227567 10.382335 2.630623 5.561492 18.847538 -49.822273 13.053588 -18.538527 -0.633722 2.726877 -29.712055 -27.936344 -5.912821 -0.958073 -1.324820 7.104976 -17.034336 53.309406 13.155549 27.489771 0.948519 2.726728 24.576643 26.250404 0.802091 1.704830 -2.130081 -21.358646 0.356917 5.444838 35.977871 1.545040 -0.938295 -17.758085 8.399778 -1.465096 0.290807 -0.830014 -0.827178 -23.472473 0.108494 -12.835129 56.236145 5.151380 -6.441236 7.004224 -0.083110 23.394957 -25.584387 -0.276405 -1.129803 
-9.015874 46.817150 39.571110 0.013758 -18.320137 -0.028276 -1.355376 2.062611 -2.220101 14.278484 -0.767391 -4.675499 6.949951 -0.294896 -2.646750 1.443051 -1.116279 -4.414649 1.572123 -2.883217 1.765486 28.807438 7.489062 7.227536 -7.333574 10.375425 2.746118 3.972389 17.876551 -49.322899 11.568327 -18.669373 -0.779886 3.200831 -29.810690 -26.969242 -5.981678 -1.625923 -1.222056 8.176529 -18.292257 52.570442 14.351008 26.168331 1.458599 3.037940 24.437511 26.771946 0.948256 2.160978 -3.042565 -20.624338 0.970744 6.162102 35.261971 0.366861 0.207412 -17.778202 8.547711 -2.412342 0.099319 -0.687167 -0.489241 -22.510679 0.217443 -12.053016 52.991852 4.634473 -5.554042 7.517645 -1.429781 22.445711 -24.025032 -0.255850 -0.680149 
-9.093117 47.204338 39.737881 0.023111 -18.229523 -0.018514 -1.591379 2.357694 -3.130396 13.969908 -1.325650 -4.812798 6.709753 -0.791707 -2.842356 1.309311 -1.041614 -4.789431 1.746501 -2.453084 1.925659 29.149788 8.207854 8.650792 -7.035786 9.816141 3.029920 3.076293 16.604765 -49.518196 9.775031 -18.282688 -1.166202 3.656258 -30.073372 -25.858788 -6.026240 -2.805454 -1.101910 9.604777 -19.426895 52.558693 15.591467 25.186281 1.267630 2.712393 24.434967 27.596575 0.644437 2.239858 -3.962486 -19.326990 1.237210 7.100282 33.200481 -0.590704 0.941928 -16.432335 8.626717 -3.225927 0.132800 -0.889355 -0.352324 -21.353533 0.288200 -11.207338 49.287277 4.609139 -4.668850 6.708381 -3.207526 21.545797 -22.500931 -0.144501 -0.357987 
-9.156133 47.586712 39.839546 0.006837 -18.646572 -0.025755 -1.390599 3.142572 -3.643508 13.387730 -2.119088 -5.335585 6.490971 -1.418406 -2.881372 0.762567 -1.092342 -5.195361 1.823829 -1.972320 2.181345 29.742573 9.298428 9.391799 -6.891453 9.489464 3.183097 2.118955 15.839826 -49.408207 8.707813 -18.093697 -1.350468 3.963123 -30.207655 -25.167982 -5.861806 -3.305324 -1.251614 10.742971 -20.268204 53.010582 16.377251 23.610392 1.114442 2.786587 24.978043 28.174744 0.800354 2.719205 -4.679110 -18.670309 1.429653 7.740215 31.779161 -1.748865 1.679446 -15.547139 8.626856 -3.842811 0.201810 -0.908446 -0.349607 -19.847555 -0.029783 -10.282341 43.477169 4.057541 -3.670919 5.810507 -4.899903 20.458876 -20.717556 0.293609 -0.642283 
-9.165338 47.777660 39.890003 0.029702 -18.615791 -0.030881 -1.367424 3.022324 -4.105267 13.171425 -2.737706 -5.731058 6.055141 -1.847312 -3.043906 0.663345 -0.904019 -5.271332 1.854031 -1.460442 1.808801 29.702452 9.635987 10.688032 -6.737676 9.342156 3.346330 1.334504 14.673119 -49.463192 7.645067 -17.895508 -1.441727 4.104379 -30.162632 -24.441235 -5.923184 -4.067816 -1.425414 12.068697 -21.226191 53.517448 17.167437 22.931463 0.989892 2.724375 24.762159 28.988008 0.785541 2.579173 -5.091963 -18.088600 1.420157 8.408077 30.366446 -1.875006 1.594364 -14.653468 7.990712 -4.427695 0.327617 -0.570999 -0.059358 -18.692486 0.318606 -9.580871 37.949787 3.670960 -2.503625 5.115902 -6.348394 19.142363 -17.914627 0.225871 -0.639624 
-9.096483 48.087940 40.024311 0.021145 -18.780846 -0.025280 -1.174556 3.137579 -4.505294 12.650493 -3.345745 -6.196767 5.757602 -2.357780 -3.305225 0.259004 -0.912254 -5.411532 1.991413 -0.990510 1.891387 30.444668 10.249826 11.127636 -6.698816 9.355071 3.479272 0.437325 13.775587 -49.104927 7.077594 -17.230303 -1.251655 3.665930 -30.279306 -24.092340 -6.116453 -4.175298 -1.712426 13.511737 -22.672615 54.298923 18.025106 21.857353 0.594328 2.658350 25.040073 29.589993 0.902803 2.536398 -5.413990 -17.788942 1.400082 8.408893 29.667267 -2.268351 1.779514 -13.852453 8.049398 -4.635460 0.308561 -0.740485 0.103842 -16.411970 0.328858 -8.794466 30.107517 2.950556 -1.780886 5.204082 -7.444744 17.286840 -13.756889 0.355249 -0.005996 
-9.143785 48.201736 40.132938 0.034275 -19.191074 -0.020997 -0.907674 3.312578 -4.601130 12.266048 -3.703860 -6.458730 5.637112 -2.859988 -3.454908 0.193476 -0.720817 -5.559947 2.126168 -0.999370 1.918048 30.116076 10.719793 11.742847 -6.786897 9.340603 3.582815 -0.138641 12.965606 -49.302074 6.403785 -16.847467 -1.418665 3.578250 -30.229252 -23.563044 -6.080639 -4.297284 -1.760340 14.072797 -23.520884 54.863419 18.084734 21.072563 0.871935 2.767110 24.803797 29.834637 1.024697 2.824800 -5.451139 -17.528673 1.241947 8.600025 29.182655 -2.596584 1.787984 -13.413354 8.020724 -4.929017 0.287287 -0.550074 0.057671 -15.993601 0.096163 -8.025325 24.346432 2.073033 -1.270032 5.919841 -7.834028 15.606368 -9.771154 0.442530 0.175506 
-9.151437 48.330318 40.256817 0.034399 -19.330435 -0.021568 -0.908101 3.160283 -4.451657 12.108877 -4.134503 -6.684925 5.617257 -3.095188 -3.595951 -0.042960 -0.720361 -5.696370 2.013834 -1.055591 2.020922 30.258986 11.060181 11.785542 -6.934544 9.422600 3.629599 -0.642047 11.765124 -49.672024 5.735859 -16.288462 -1.659149 2.833749 -30.170918 -23.235329 -6.268577 -4.776938 -2.284298 14.817582 -24.123714 55.654655 18.264086 19.829515 0.398133 2.352536 25.051178 30.268450 1.119332 2.704150 -5.402732 -17.275902 0.960350 8.381702 28.803925 -2.382704 1.660390 -13.010286 7.942054 -4.847228 0.184715 -0.532086 0.125416 -15.721346 0.081930 -7.167495 18.415453 1.934213 -0.895991 6.900578 -8.740181 13.205948 -6.389266 0.235891 0.827353 
